<?xml version="1.0" encoding="UTF-8"?>
<svg version="1.1" viewBox="0 0 2048 2048" width="1280" height="1280" xmlns="http://www.w3.org/2000/svg">
<path transform="translate(759,64)" d="m0 0h16l15 3 15 8 11 10 7 10 6 12 2 8 1 10v195h128v-201l3-12 8-16 11-12 8-6 12-6 14-3h15l15 3 15 8 11 10 7 10 6 12 2 8 1 10v195h128v-201l3-12 8-16 11-12 8-6 12-6 14-3h15l15 3 15 8 11 10 7 10 6 12 2 8 1 9v196h198l25 2 23 5 22 8 20 10 15 10 13 10 15 14 9 10 12 16 12 21 9 21 6 20 4 24 1 16v197h198l12 2 12 5 10 7 8 7 7 10 5 10 3 9 1 6v14l-3 14-8 16-9 10-9 8-13 6-11 3-12 1h-191v128h197l13 2 12 5 10 7 8 7 7 10 5 10 3 9 1 6v14l-3 14-8 16-9 10-9 8-13 6-11 3-12 1h-191v128h197l13 2 12 5 10 7 8 7 7 10 5 10 3 9 1 6v14l-3 14-8 16-9 10-9 8-13 6-11 3-13 1h-190v191l-1 21-3 19-6 23-9 22-10 18-10 14-9 11-9 10h-2v2l-8 7-14 11-13 8-21 11-22 8-17 4-20 3-18 1h-192v191l-2 18-5 12-7 11-11 11-10 6-13 5-14 2-15-1-10-3-12-6-12-10-9-12-5-11-3-14v-199h-128v190l-1 14-4 13-6 11-9 10-9 8-13 6-10 3-17 1-16-3-14-7-12-10-9-12-5-11-3-14v-199h-128v190l-1 14-4 13-6 11-9 10-9 8-13 6-10 3-17 1-16-3-14-7-12-10-9-12-5-11-3-14v-199h-190l-22-1-24-4-21-6-25-11-18-11-13-10-10-9-16-16-10-13-12-19-9-19-8-24-4-19-2-19v-203h-194l-15-2-13-5-10-7-8-7-9-13-5-12-2-9v-18l4-15 7-13 11-12 8-6 10-5 10-3 7-1h199v-128h-194l-15-2-13-5-10-7-8-7-9-13-5-12-2-9v-18l4-15 7-13 11-12 8-6 10-5 10-3 7-1h199v-128h-194l-15-2-13-5-10-7-8-7-9-13-5-12-2-9v-18l4-15 7-13 11-12 8-6 10-5 9-3 7-1h200v-205l3-24 6-23 8-20 11-21 12-17 13-15 11-11 14-11 15-10 14-8 19-8 20-6 22-4 15-1h201v-201l3-12 4-9 5-8 9-10 9-7 12-6zm-256 384-13 3-15 8-12 11-7 10-5 11-3 15v1036l3 15 7 14 9 11 12 9 10 5 11 3 7 1h1034l15-3 16-8 10-9 8-9 6-12 3-12 1-7v-1032l-2-13-5-13-9-13-10-9-10-6-10-4-10-2z" fill="#60BDB0"/>
<path transform="translate(946,960)" d="m0 0h28l23 3 23 6 20 8 19 10 12 8 14 11 15 14 12 14 9 13 10 17 8 18 6 18 4 17 2 13 1 13v15l-2 23-5 23-6 18-9 20-11 18-10 13-9 10-5 6h-2v2l-8 7-17 13-19 11-17 8-21 7-24 5-22 2h-12l-22-2-23-5-21-7-17-8-18-11-13-10-10-9-16-16-10-13-9-14-10-19-9-25-5-23-2-16v-29l4-27 6-21 8-19 10-19 10-14 8-10 11-12 7-7 14-11 15-10 16-9 20-8 21-6 17-3zm4 128-12 3-13 7-10 8-7 8-7 12-4 13-1 6v15l4 16 6 11 9 11 12 9 10 5 16 4h12l15-3 16-8 12-11 7-9 6-13 3-15v-11l-3-14-5-12-9-12-9-8-14-8-15-4z" fill="#60BDB0"/>
<path transform="translate(1145,768)" d="m0 0h269l12 2 12 5 10 7 8 7 7 10 5 10 3 9 1 6v14l-3 14-8 16-9 10-9 8-13 6-11 3-12 1h-63v383l-2 18-5 12-7 11-11 11-10 6-13 5-13 2-16-1-10-3-12-6-11-9-8-10-7-14-3-14v-391h-66l-15-2-13-5-10-7-8-7-9-13-5-12-2-9v-18l4-15 7-13 11-12 8-6 10-5 9-3z" fill="#60BDB0"/>
<path transform="translate(631,768)" d="m0 0h16l12 2 16 8 10 8 9 11 7 14 3 16v453l-1 13-4 12-6 11-9 10-9 8-13 6-10 3-17 1-16-3-14-7-13-11-9-13-4-9-3-14v-464l3-12 8-16 11-12 8-6 12-6z" fill="#60BDB0"/>
<path transform="translate(1016,64)" d="m0 0h15l15 3 15 8 11 10 7 10 6 12 2 8 1 10v195h128v-201l3-12 8-16 11-12 8-6 12-6 14-3h15l15 3 15 8 11 10 7 10 6 12 2 8 1 9v196l34 1 28 1v2l-4 1-1-1-3 1-2-1v3l-28 1-7 1-7-1-6-1-3 1-7-2-4-6-2-19 1-16-1-28v-21l-1-17 1-17-1-4 1-4v-14l-2-22v-11l-1-5v-16l1-9-4-10-6-7v-3l-3-1-2-5-3-1-3-4-5-3-5-5-8-5-7-2-3-1h-8l-16 7-4 1v2l-8 7-4 4-3 5-1 7-4 2-2 8-1 5-1 18-1 12 1 8v26l-1 14-1 31v48l-1 29-3 9-1 7-4 5-9 2h-2l-7-2v2l-9 1-20 1h-46l-23-1-10-1-1-5h-4v2l-4-1-4-9v-62l1-21v-54l-3-5-2-26-1-17 1-9-2-9-3-6-6-5-4-7v-2l-5-2-5-4-1-4 3-2-9-7-7-3-8 2-11-1-2-1v2l-14 6-7 4-2-1-1 3-4 1-2 3-2-1 1 3-3 2v-2h-2l-1 6-3 1 2 4h2l2-2h3v3l-7 5-2-2-4-1 1 7 1 2-2 30-1 23v32l-1 13 1 15-1 4v67l-1 13-1 1-2 11-3 4-7 1-5-1-1 2-2-1-7 1-28 1h-24l-11-1-1-1-5 1-3-1-3 1-5-1-5 1h-11l-6-2-1-2-8-1-1-4h-2l-2-6-1-15v-28l1-13 1-52 3-11h1l1 5h1v121l1 1h128v-201l3-12 8-16 11-12 8-6 12-6z" fill="#79CEB4"/>
<path transform="translate(1016,64)" d="m0 0h15l15 3 15 8 11 10 7 10 6 12 2 8 1 10v10l-1 9v177l3 1h-3v2l-4-1-4-9v-62l1-21v-54l-3-5-2-26-1-17 1-9-2-9-3-6-6-5-4-7v-2l-5-2-5-4-1-4 3-2-9-7-7-3-8 2-11-1-2-1v2l-14 6-7 4-2-1-1 3-4 1-2 3-2-1 1 3-3 2v-2h-2l-1 6-3 1 2 4h2l2-2h3v3l-7 5-2-2-4-1 1 7 1 2-2 30-1 23v32l-1 13 1 15-1 4v67l-1 13-1 1-2 11-3 4-7 1-5-1-1 2-2-1-7 1-28 1h-24l-11-1-1-1-5 1-3-1-3 1-5-1-5 1h-11l-6-2-1-2-8-1-1-4h-2l-2-6-1-15v-28l1-13 1-52 3-11h1l1 5h1v121l1 1h128v-201l3-12 8-16 11-12 8-6 12-6z" fill="#7ACEB4"/>
<path transform="translate(1598,496)" d="m0 0 4 2v7h2l3 7 2 6v151l-1 15 1 5-1 92v66l1 27v12l1 15v70l1 17v79l-1 45-1 5v13h-2l1 3v4l-1 12-2 1v56l-1 68v25l-1 3 1 6v2l-1 5-2 3v-713l-1-93z" fill="#7BCFB5"/>
<path transform="translate(1547,321)" d="m0 0h12l19 3 21 6 19 8 19 10 17 12 10 9 8 7 12 13 12 16 12 21 9 21 6 20 4 24v214l4 1h-4l-1 2-5-4-2-4-1-17v-67l1-40v-20l-2-4-1-47v-23l-2-6h-2l-2-4-2-9-3-6-2-5-1-6-8-16-5-8-4-5-4-6-1-3-4-2-5-9-4-3v-2l-3 1-6-5-3-5-7-8v-2l-5-2-8-6-2-4h-2v-2l-7-1-10-7-10-8-13-4-10-4-8-3-17-5-15-2-2-3z" fill="#7DD0B5"/>
<path transform="translate(814,438)" d="m0 0h86l35 1 131 1h209l67 1h26l3 1 7-1 4 2 6-1 7 1 6 2v1l-137 1h-506v-2h22l4-1h40l-7-1h-11l-2 1-8-1h-6l-2-4z" fill="#79CEB4"/>
<path transform="translate(1035,65)" d="m0 0 11 2 15 8 11 10 7 10 6 12 2 8 1 10v10l-1 9v177l3 1h-3v2l-4-1-4-9v-62l1-21v-54l-3-5-2-26-1-17 1-9-2-9-3-6-6-5-4-7v-2l-5-2-5-4-1-4 3-2-9-7-7-3h-4l1-3z" fill="#7CD0B5"/>
<path transform="translate(753,65)" d="m0 0 3 1-1 3h-2v2l-7 3-3 3-8 2-1 3-4 1-1 2-8 6-3 5-2 6-1 1-1 16v9l-1 5 1 3v20l-1 5 1 8-1 13v54l-1 13v17l1 22-1 18-3 11-1 6-5 3-7-2-3 1h-15l-8-2v-2h-29v-1h63v-201l3-12 4-9 5-8 9-10 9-7 12-6z" fill="#7ACEB5"/>
<path transform="translate(1747,825)" d="m0 0h84l19 1 30 1h15l14 1 6 1h6l-2 3h-192v129l-3-1v-2h-2l-2-6-1-7v-52l1-49 4-13 1-1 14-1 1-2 6-1z" fill="#77CCB4"/>
<path transform="translate(1761,1078)" d="m0 0h49l4 2 9-2 26 1 11 1-4 2-4 1h-9l-4-1-1 1h-7l-3-2-1 2-8-1-5 1-25 1h-10l20 1v1l-23 1h-48v129h5l-3 2h-3v2l-5-1-3-7-2-22v-72l2-24 3-6v-2l5-2 1 1 9 1v-4l6-2 13-1z" fill="#78CDB4"/>
<path transform="translate(1725,830)" d="m0 0h12v1l-9 1-1 129-3-1v-2h-2l-2-6-1-7v-52l1-49 4-13z" fill="#7CD0B5"/>
<path transform="translate(1394,769)" d="m0 0h28l12 4 12 7 10 9 7 10 5 10 3 9 1 6v14l-1 3-3 3-3 9-3 1v-10l1-8-2-19-4-9-6-9-6-7-17-12-13-6-5-1v-2h-20z" fill="#7DD0B5"/>
<path transform="translate(1923,960)" d="m0 0 15 2 12 5 10 7 8 7 7 10 5 10 3 9 1 6v14l-3 14-8 16-9 10-9 8-3 1 2-4 5-6h2l2-5 7-9 3-6 1-1 1-7 1-1v-23l-3-13-6-11-6-7v-2h-2l-5-5-9-7-18-9-4-1z" fill="#7DD0B6"/>
<path transform="translate(1259,98)" d="m0 0 5 1 10 1 2 4 6-2 1 3h2l-1 6h2l-1 2h-3l-2 5 2 3-3 1v-2l-5 1-2 5h-6l-4 6-3 1-1-3-2-1v-4l-8-3v-9l2-7 4-2 9-1 3 1v-2l-10-1v-2z" fill="#7BCFB4"/>
<path transform="translate(784,66)" d="m0 0 6 1 15 8 11 10 7 10 6 12 2 8 1 10v10h-1l-2 43-2-3v-10l-3-9-1-13v-26l-3-11-7-13-4-5v-2h-3v-2l-4-2-3-3-3-5v-2h-8v-2l-5-2z" fill="#7ED1B6"/>
<path transform="translate(1340,951)" d="m0 0h1l1 5-1 110-4 1-2-8-1-18v-81l2-4 4-2z" fill="#7CD0B5"/>
<path transform="translate(1761,1078)" d="m0 0h49l4 2 9-2 26 1 11 1-4 2-4 1h-9l-4-1-1 1h-7l-3-2-1 2-8-1-5 1-25 1h-10l20 1v1l-23 1h-41l2-1v-4l6-2 13-1z" fill="#7CD0B5"/>
<path transform="translate(1929,705)" d="m0 0 9 1 12 5 10 7 8 7 7 10 5 10 3 9 1 6v14l-3 14-2 5-2-1 2-12-2-1-2-24-2-9-8-15-4-3v-2l-4-1-8-6-5-5-1-2-5-1-8-3-5-1z" fill="#7ED0B6"/>
<path transform="translate(1145,768)" d="m0 0 47 1 15 1 3 2h-4v2h-53l-8 3-11 2-11 3h-4v2l-7 3-5 6h-3v2l-6 3 2-4 9-10 9-7 10-5 9-3z" fill="#7DD0B5"/>
<path transform="translate(503,320)" d="m0 0 54 1 16 1v1l-22 1-5 1h-32l-12-1h-14l-7 1-5 3-7 1-3 2-2 2-20 8-7 2-2-4 1-4 19-7 20-5 13-2z" fill="#7DD0B6"/>
<path transform="translate(1341,892)" d="m0 0 5 1-2 1-1 39-2 6-3-4-1-10v-19l-1-4 3-8z" fill="#7CD0B5"/>
<path transform="translate(503,320)" d="m0 0 54 1 16 1v1l-22 1-5 1h-32l-12-1h-14l-6 1 1-3 5-1z" fill="#7CCFB5"/>
<path transform="translate(1461,855)" d="m0 0 4 1 1 3-7 12-13 13-9 5h-2v-2l5-3h2l2-4 5-8z" fill="#7DD0B5"/>
<path transform="translate(641,320)" d="m0 0h57l-2 4-3 1h-15l-8-2v-2h-29z" fill="#77CDB4"/>
<path transform="translate(1363,889)" d="m0 0 10 1 4 1v3l6-2 12 2v1h-43l2-1 2-4h6z" fill="#7CD0B5"/>
<path transform="translate(1735,1217)" d="m0 0h18l17 1-1 2-10 2v-2l-5 3h-14l-6-3z" fill="#7CD0B5"/>
<path transform="translate(1823,1078)" d="m0 0 26 1 11 1-4 2-4 1h-9l-4-1-1 1h-7l-3-2-1 2-8-1-5 1 2-4z" fill="#7BCFB4"/>
<path transform="translate(577,817)" d="m0 0 2 3 1 6v28l-1 13-1 18h-1l-1-62z" fill="#7DD0B5"/>
<path transform="translate(1731,704)" d="m0 0 22 1 7 1-4 2-3 2-9 1-4 1-4-1-3-5z" fill="#7CD0B5"/>
<path transform="translate(783,444)" d="m0 0 31 1-1 2h-55v-2h22z" fill="#7CD0B5"/>
<path transform="translate(1016,64)" d="m0 0h15l4 2-2 1-1 3-4 1-11-1-5-3v-2z" fill="#7BCFB4"/>
<path transform="translate(1218,906)" d="m0 0 3 1 1 8-1 4 1 2-2 3-2 17h-1v-32z" fill="#7CD0B5"/>
<path transform="translate(985,109)" d="m0 0 1 4 5 6 1 8h-4l-6-5-1-4 3-8z" fill="#7CD0B5"/>
<path transform="translate(1976,794)" d="m0 0 2 1-7 12-11 11-1-2 9-12 3-5z" fill="#7DD0B5"/>
<path transform="translate(770,439)" d="m0 0h2v2l5-2h8v2l2 1-5 1h-26l-3-2 16-1z" fill="#7CD0B5"/>
<path transform="translate(1469,841)" d="m0 0h2l-1 8-4 9-3-1 1-4 4-11z" fill="#65C0B0"/>
<path transform="translate(1016,64)" d="m0 0h15l4 2-4 1h-10l-7 1-2-1v-2z" fill="#6DC4B4"/>
<path transform="translate(408,350)" d="m0 0 3 1-3 5h-3l-1 3-6-1 4-4z" fill="#78CCB5"/>
</svg>
